<?xml version="1.0" encoding="UTF-8" standalone="no"?>
<!-- Created with Inkscape (http://www.inkscape.org/) -->

<svg
   xmlns:dc="http://purl.org/dc/elements/1.1/"
   xmlns:cc="http://creativecommons.org/ns#"
   xmlns:rdf="http://www.w3.org/1999/02/22-rdf-syntax-ns#"
   xmlns:svg="http://www.w3.org/2000/svg"
   xmlns="http://www.w3.org/2000/svg"
   xmlns:sodipodi="http://sodipodi.sourceforge.net/DTD/sodipodi-0.dtd"
   xmlns:inkscape="http://www.inkscape.org/namespaces/inkscape"
   id="svg2"
   version="1.1"
   inkscape:version="0.91 r13725"
   xml:space="preserve"
   width="251.25"
   height="163.75"
   viewBox="0 0 251.25 163.75"
   sodipodi:docname="1 RGB.svg"><metadata
     id="metadata8"><rdf:RDF><cc:Work
         rdf:about=""><dc:format>image/svg+xml</dc:format><dc:type
           rdf:resource="http://purl.org/dc/dcmitype/StillImage" /><dc:title></dc:title></cc:Work></rdf:RDF></metadata><defs
     id="defs6" /><sodipodi:namedview
     pagecolor="#ffffff"
     bordercolor="#666666"
     borderopacity="1"
     objecttolerance="10"
     gridtolerance="10"
     guidetolerance="10"
     inkscape:pageopacity="0"
     inkscape:pageshadow="2"
     inkscape:window-width="640"
     inkscape:window-height="480"
     id="namedview4"
     showgrid="false"
     inkscape:zoom="1.4412214"
     inkscape:cx="125.625"
     inkscape:cy="81.875"
     inkscape:window-x="75"
     inkscape:window-y="34"
     inkscape:window-maximized="0"
     inkscape:current-layer="g10" /><g
     id="g10"
     inkscape:groupmode="layer"
     inkscape:label="ink_ext_XXXXXX"
     transform="matrix(1.25,0,0,-1.25,0,163.75)"><g
       id="g12"
       transform="scale(0.1,0.1)"><path
         d="m 790.762,1013.82 75.074,30.44 0,-16.92 -27.906,-27.899 4.355,-4.355 12.035,-12.035 31.297,31.299 3.399,3.39 0,60.9 -15.938,-6.46 -100.09,-40.57 0,-32.782 0.407,-0.414 24.074,-24.07 7.683,-7.68 0,-0.008 8.192,-8.191 25.48,-25.477 0,-18.211 -71.383,-30.504 -9.242,-3.953 0,0 -26.644,-11.382 9.086,-21.266 23.597,10.082 23.707,10.133 0,0 66.996,28.633 7.059,3.015 0,43.051 -3.391,3.398 -20.679,20.672 -12.039,12.039 -4.352,4.356 -7.68,7.679 -23.097,23.09 z M 2005.14,31.043 l 0,-23.17972 -516.66,0 20.51,76.53512 3.76,14.043 -43.15,272.4726 -104.04,104.039 -6.26,6.25 4.45,7.692 6.36,11.015 28.85,49.977 0,172.008 -107.56,62.105 -459.462,0 -6.211,23.176 468.683,0 5.75,-1.582 116.14,-67.055 5.84,-3.375 0,-188.285 -1.59,-5.746 -30.44,-52.727 -1.91,-3.312 100.4,-100.41 3.22,-6.383 44.15,-278.7229 -0.23,-4.7968 -17.08,-63.7383 486.48,0 z M 2.63672,7.86328 l 0,23.17972 677.39428,0 0,432.07 -59.644,103.317 -0.586,1.011 -1.59,5.797 0,334.102 1.59,5.797 24.293,42.078 -66.949,66.945 -3.395,3.39 0,56.48 -39.418,22.75 -59.121,58.49 -3.398,3.4 0,53.68 23.183,0 0,-44.08 33.496,-33.5 0,130.82 23.188,0 0,-96.88 21.539,5.77 0,56.96 23.179,0 0,-50.74 55.25,14.8 0,105.2 23.18,0 0,-122.96 -123.148,-32.99 0,-31.33 77.008,-44.46 0,46.99 23.183,0 0,-60.35 29.531,-17.05 44.137,0 0,61.68 23.176,0 0,-27.59 27.734,16.01 0,78.63 23.18,0 0,-65.24 13.723,7.92 0,157.5 23.175,0 0,-144.12 16.75,9.67 0,87.25 23.184,0 0,-100.52 -5.84,-3.37 -121.906,-70.38 0,-30.62 -70.363,0 -5.797,1.58 -38.071,21.99 -5.796,3.35 0,0.02 -31.754,18.34 0,-33.5 69.82,-69.818 6.269,-6.266 -4.464,-7.714 -27.168,-47.059 0,-328.008 60.23,-104.324 1.586,-5.793 0,-458.30472 -700.57028,0 z M 1452.24,31.043 l -159.74,0 73.77,275.281 -19.97,14.91 -64.15,-239.3863 -19.81,-73.98442 207.29,0 21.78,81.24612 0.33,-0.0899 0.54,2.0078 0.1,5.4805 -45.63,203.9882 -4.35,6.797 -63.22,47.207 -6.29,4.688 -176.97,132.128 -17.53,-10.121 -4.3,-2.484 133.8,-99.898 0,0 97.32,-72.657 0,0 19.95,-14.894 44.04,-196.93 -16.96,-63.289 z m -226.51,0 -345.667,0 0,223.227 24.23,91.093 8.152,30.668 22.977,86.375 0.437,1.653 26.219,98.578 -22.351,5.945 -27.797,-104.523 0,0 -2.305,-8.649 -52.328,-196.785 -0.414,-2.941 0,-247.82072 386.597,0 6.22,23.17972 0,0 68.21,254.555 1.72,6.461 -4.71,4.722 -166.89,166.887 -20.78,-11.996 166.56,-166.559 -68.08,-254.07 z m -413.039,0 -81.425,0 57.312,384 -23.406,0 -57.317,-384 -3.457,-23.17972 131.481,0 0,453.53872 -92.699,0 0,-23.179 69.511,0 0,-407.18 z m -42.402,804.152 11.41,-42.597 2.305,-8.598 0,0 8.496,-31.703 0,0 4.98,-18.586 22.36,5.992 -13.098,48.887 0,0 -4.984,18.586 0,0 -9.965,37.207 -21.504,-9.188 z m 429.641,-314.918 -24.14,-13.933 0,0 -8.94,-5.156 -56.49,-32.622 -45.22,-26.105 -5.75,-1.582 -105.765,0 6.164,23.18 96.601,0 50.16,28.961 2.73,1.574 79.1,45.668 11.55,-19.985"
         style="fill:#123647;fill-opacity:1;fill-rule:nonzero;stroke:none"
         id="path14"
         inkscape:connector-curvature="0" /></g></g></svg>